<svg width="64" height="101" viewBox="0 0 64 101" fill="none" xmlns="http://www.w3.org/2000/svg">
<g id="Group 6">
<g id="grocery">
<path d="M16.1277 92.248V97.792C16.1277 98.864 15.8637 99.656 15.3357 100.168C14.8157 100.688 14.0277 100.948 12.9717 100.948C12.3877 100.948 11.8317 100.86 11.3037 100.684C10.7837 100.516 10.3597 100.28 10.0317 99.976L10.4637 99.328C10.7677 99.6 11.1357 99.812 11.5677 99.964C12.0077 100.116 12.4677 100.192 12.9477 100.192C13.7477 100.192 14.3357 100.004 14.7117 99.628C15.0877 99.26 15.2757 98.684 15.2757 97.9V97.096C15.0117 97.496 14.6637 97.8 14.2317 98.008C13.8077 98.216 13.3357 98.32 12.8157 98.32C12.2237 98.32 11.6837 98.192 11.1957 97.936C10.7157 97.672 10.3357 97.308 10.0557 96.844C9.78371 96.372 9.64771 95.84 9.64771 95.248C9.64771 94.656 9.78371 94.128 10.0557 93.664C10.3357 93.2 10.7157 92.84 11.1957 92.584C11.6757 92.328 12.2157 92.2 12.8157 92.2C13.3517 92.2 13.8357 92.308 14.2677 92.524C14.6997 92.74 15.0477 93.052 15.3117 93.46V92.248H16.1277ZM12.8997 97.564C13.3557 97.564 13.7677 97.468 14.1357 97.276C14.5037 97.076 14.7877 96.8 14.9877 96.448C15.1957 96.096 15.2997 95.696 15.2997 95.248C15.2997 94.8 15.1957 94.404 14.9877 94.06C14.7877 93.708 14.5037 93.436 14.1357 93.244C13.7757 93.044 13.3637 92.944 12.8997 92.944C12.4437 92.944 12.0317 93.04 11.6637 93.232C11.3037 93.424 11.0197 93.696 10.8117 94.048C10.6117 94.4 10.5117 94.8 10.5117 95.248C10.5117 95.696 10.6117 96.096 10.8117 96.448C11.0197 96.8 11.3037 97.076 11.6637 97.276C12.0317 97.468 12.4437 97.564 12.8997 97.564Z" fill="white"/>
<path d="M19.3263 93.484C19.5263 93.06 19.8223 92.74 20.2143 92.524C20.6143 92.308 21.1063 92.2 21.6903 92.2V93.028L21.4863 93.016C20.8223 93.016 20.3023 93.22 19.9263 93.628C19.5503 94.036 19.3623 94.608 19.3623 95.344V98.56H18.5103V92.248H19.3263V93.484Z" fill="white"/>
<path d="M25.7543 98.62C25.1463 98.62 24.5983 98.484 24.1103 98.212C23.6223 97.932 23.2383 97.548 22.9583 97.06C22.6783 96.572 22.5383 96.02 22.5383 95.404C22.5383 94.788 22.6783 94.236 22.9583 93.748C23.2383 93.26 23.6223 92.88 24.1103 92.608C24.5983 92.336 25.1463 92.2 25.7543 92.2C26.3623 92.2 26.9103 92.336 27.3983 92.608C27.8863 92.88 28.2663 93.26 28.5383 93.748C28.8183 94.236 28.9583 94.788 28.9583 95.404C28.9583 96.02 28.8183 96.572 28.5383 97.06C28.2663 97.548 27.8863 97.932 27.3983 98.212C26.9103 98.484 26.3623 98.62 25.7543 98.62ZM25.7543 97.864C26.2023 97.864 26.6023 97.764 26.9543 97.564C27.3143 97.356 27.5943 97.064 27.7943 96.688C27.9943 96.312 28.0943 95.884 28.0943 95.404C28.0943 94.924 27.9943 94.496 27.7943 94.12C27.5943 93.744 27.3143 93.456 26.9543 93.256C26.6023 93.048 26.2023 92.944 25.7543 92.944C25.3063 92.944 24.9023 93.048 24.5423 93.256C24.1903 93.456 23.9103 93.744 23.7023 94.12C23.5023 94.496 23.4023 94.924 23.4023 95.404C23.4023 95.884 23.5023 96.312 23.7023 96.688C23.9103 97.064 24.1903 97.356 24.5423 97.564C24.9023 97.764 25.3063 97.864 25.7543 97.864Z" fill="white"/>
<path d="M33.3138 98.62C32.6898 98.62 32.1298 98.484 31.6338 98.212C31.1458 97.94 30.7618 97.56 30.4818 97.072C30.2018 96.576 30.0618 96.02 30.0618 95.404C30.0618 94.788 30.2018 94.236 30.4818 93.748C30.7618 93.26 31.1458 92.88 31.6338 92.608C32.1298 92.336 32.6898 92.2 33.3138 92.2C33.8578 92.2 34.3418 92.308 34.7658 92.524C35.1978 92.732 35.5378 93.04 35.7858 93.448L35.1498 93.88C34.9418 93.568 34.6778 93.336 34.3578 93.184C34.0378 93.024 33.6898 92.944 33.3138 92.944C32.8578 92.944 32.4458 93.048 32.0778 93.256C31.7178 93.456 31.4338 93.744 31.2258 94.12C31.0258 94.496 30.9258 94.924 30.9258 95.404C30.9258 95.892 31.0258 96.324 31.2258 96.7C31.4338 97.068 31.7178 97.356 32.0778 97.564C32.4458 97.764 32.8578 97.864 33.3138 97.864C33.6898 97.864 34.0378 97.788 34.3578 97.636C34.6778 97.484 34.9418 97.252 35.1498 96.94L35.7858 97.372C35.5378 97.78 35.1978 98.092 34.7658 98.308C34.3338 98.516 33.8498 98.62 33.3138 98.62Z" fill="white"/>
<path d="M42.85 95.668H37.57C37.618 96.324 37.87 96.856 38.326 97.264C38.782 97.664 39.358 97.864 40.054 97.864C40.446 97.864 40.806 97.796 41.134 97.66C41.462 97.516 41.746 97.308 41.986 97.036L42.466 97.588C42.186 97.924 41.834 98.18 41.41 98.356C40.994 98.532 40.534 98.62 40.03 98.62C39.382 98.62 38.806 98.484 38.302 98.212C37.806 97.932 37.418 97.548 37.138 97.06C36.858 96.572 36.718 96.02 36.718 95.404C36.718 94.788 36.85 94.236 37.114 93.748C37.386 93.26 37.754 92.88 38.218 92.608C38.69 92.336 39.218 92.2 39.802 92.2C40.386 92.2 40.91 92.336 41.374 92.608C41.838 92.88 42.202 93.26 42.466 93.748C42.73 94.228 42.862 94.78 42.862 95.404L42.85 95.668ZM39.802 92.932C39.194 92.932 38.682 93.128 38.266 93.52C37.858 93.904 37.626 94.408 37.57 95.032H42.046C41.99 94.408 41.754 93.904 41.338 93.52C40.93 93.128 40.418 92.932 39.802 92.932Z" fill="white"/>
<path d="M45.4122 93.484C45.6122 93.06 45.9082 92.74 46.3002 92.524C46.7002 92.308 47.1922 92.2 47.7762 92.2V93.028L47.5722 93.016C46.9082 93.016 46.3882 93.22 46.0122 93.628C45.6362 94.036 45.4482 94.608 45.4482 95.344V98.56H44.5962V92.248H45.4122V93.484Z" fill="white"/>
<path d="M54.8924 92.248L51.7364 99.316C51.4804 99.908 51.1844 100.328 50.8484 100.576C50.5124 100.824 50.1084 100.948 49.6364 100.948C49.3324 100.948 49.0484 100.9 48.7844 100.804C48.5204 100.708 48.2924 100.564 48.1004 100.372L48.4964 99.736C48.8164 100.056 49.2004 100.216 49.6484 100.216C49.9364 100.216 50.1804 100.136 50.3804 99.976C50.5884 99.816 50.7804 99.544 50.9564 99.16L51.2324 98.548L48.4124 92.248H49.3004L51.6764 97.612L54.0524 92.248H54.8924Z" fill="white"/>
</g>
<g id="Markie">
<path d="M0 73H2.448L6.16 80.216L9.84 73H12.288V84.2H10.32V76.168L6.832 83.048H5.456L1.952 76.168V84.2H0V73Z" fill="url(#paint0_linear_816_15931)"/>
<path d="M23.3349 84.2L22.3429 81.832H16.8709L15.8789 84.2H13.6549L18.5669 73H20.7909L25.6389 84.2H23.3349ZM17.6389 79.992H21.5749L19.6229 75.288L17.6389 79.992Z" fill="url(#paint1_linear_816_15931)"/>
<path d="M34.008 84.2L32.072 80.888C31.9867 80.8987 31.8533 80.904 31.672 80.904H29.144V84.2H27V73H31.672C33.1227 73 34.2427 73.336 35.032 74.008C35.8213 74.68 36.216 75.6293 36.216 76.856C36.216 77.7307 36.024 78.4773 35.64 79.096C35.2667 79.7147 34.7173 80.1787 33.992 80.488L36.456 84.2H34.008ZM29.144 79.016H31.672C32.4827 79.016 33.1013 78.84 33.528 78.488C33.9547 78.136 34.168 77.6133 34.168 76.92C34.168 76.2373 33.9547 75.7253 33.528 75.384C33.1013 75.0427 32.4827 74.872 31.672 74.872H29.144V79.016Z" fill="url(#paint2_linear_816_15931)"/>
<path d="M48.5625 84.2H45.9865L42.4665 79.4L40.7065 81.336V84.2H38.5625V73H40.7065V78.584L45.7625 73H48.2905L43.9865 77.736L48.5625 84.2Z" fill="url(#paint3_linear_816_15931)"/>
<path d="M50.1719 73H52.3159V84.2H50.1719V73Z" fill="url(#paint4_linear_816_15931)"/>
<path d="M55.0625 73H63.2705V74.872H57.2065V77.64H62.6465V79.512H57.2065V82.328H63.4625V84.2H55.0625V73Z" fill="url(#paint5_linear_816_15931)"/>
</g>
<path id="Vector" d="M35.2386 45.3504L38.8526 42.3704C39.387 41.9285 39.9447 41.515 40.5234 41.1317C43.3075 39.241 46.5727 38.1624 49.9466 38.019C51.5971 37.9707 55.02 37.8661 60.008 40.8341L62 37.5806C60.9553 36.9569 59.8687 36.4047 58.7478 35.9277C59.7927 32.0608 60.0041 28.0198 59.3683 24.0668C58.7326 20.1139 57.2638 16.3373 55.0573 12.9822C52.8508 9.62714 49.956 6.76845 46.5606 4.59166C43.1652 2.41487 39.3451 0.968609 35.3482 0.34673C31.3513 -0.27515 27.2668 -0.058756 23.3599 0.981869C19.453 2.02249 15.8109 3.86409 12.6699 6.38718C9.52893 8.91028 6.95926 12.0585 5.12763 15.6275C3.29599 19.1966 2.24333 23.1067 2.03794 27.1042C2.03794 27.2409 1.95257 30.2572 2.03794 30.8805L5.86738 30.5025C5.83893 30.1003 5.86738 27.6873 5.8999 27.2852C6.05796 23.8132 6.95281 20.413 8.52629 17.3057C10.0998 14.1983 12.3167 11.4533 15.0328 9.24905C17.749 7.04484 20.9037 5.43079 24.2918 4.5118C27.6799 3.59281 31.2255 3.38947 34.6982 3.915C38.171 4.44052 41.493 5.68316 44.4485 7.56211C47.4039 9.44106 49.9266 11.9143 51.8525 14.821C53.7784 17.7277 55.0644 21.0028 55.6269 24.4334C56.1895 27.864 56.0159 31.3734 55.1176 34.7333C53.3882 34.3232 51.6096 34.1526 49.8328 34.2265C46.2232 34.3634 42.7063 35.395 39.6047 37.2267C39.1982 31.1942 36.3525 25.6484 32.0312 22.5356L30.901 21.7313L29.7709 22.5356C25.4292 25.6443 22.5998 31.2183 22.1974 37.3071C16.0996 34.3552 5.83486 35.8473 5.37142 35.9156L3.02579 36.2695L3.85916 38.4694C5.70306 43.3238 8.84707 47.5905 12.9544 50.8126C17.0618 54.0347 21.9778 56.0907 27.1759 56.7605C32.374 57.4303 37.6583 56.6887 42.463 54.615C47.2676 52.5413 51.4115 49.2136 54.4509 44.9885L51.3166 42.7806C48.8053 46.2711 45.4222 49.058 41.4974 50.8691C37.5726 52.6802 33.2402 53.4538 28.9231 53.1143C24.6059 52.7748 20.4514 51.3338 16.8651 48.932C13.2789 46.5302 10.3833 43.2496 8.461 39.4104C12.3026 39.1249 18.2663 39.1691 21.2787 41.1639C21.8578 41.5451 22.4156 41.9573 22.9495 42.3985L26.5634 45.3786L26.0959 40.7496C26.0288 40.1043 25.9948 39.456 25.9943 38.8072C25.9943 33.933 27.848 29.3764 30.9132 26.5532C33.9703 29.3684 35.824 33.933 35.824 38.8072C35.8236 39.4546 35.7897 40.1016 35.7224 40.7456L35.2386 45.3504Z" fill="url(#paint6_linear_816_15931)"/>
</g>
<defs>
<linearGradient id="paint0_linear_816_15931" x1="61.402" y1="73" x2="53.8107" y2="100.088" gradientUnits="userSpaceOnUse">
<stop stop-color="#D7FDDE"/>
<stop offset="1" stop-color="#37E89E"/>
</linearGradient>
<linearGradient id="paint1_linear_816_15931" x1="61.402" y1="73" x2="53.8107" y2="100.088" gradientUnits="userSpaceOnUse">
<stop stop-color="#D7FDDE"/>
<stop offset="1" stop-color="#37E89E"/>
</linearGradient>
<linearGradient id="paint2_linear_816_15931" x1="61.402" y1="73" x2="53.8107" y2="100.088" gradientUnits="userSpaceOnUse">
<stop stop-color="#D7FDDE"/>
<stop offset="1" stop-color="#37E89E"/>
</linearGradient>
<linearGradient id="paint3_linear_816_15931" x1="61.402" y1="73" x2="53.8107" y2="100.088" gradientUnits="userSpaceOnUse">
<stop stop-color="#D7FDDE"/>
<stop offset="1" stop-color="#37E89E"/>
</linearGradient>
<linearGradient id="paint4_linear_816_15931" x1="61.402" y1="73" x2="53.8107" y2="100.088" gradientUnits="userSpaceOnUse">
<stop stop-color="#D7FDDE"/>
<stop offset="1" stop-color="#37E89E"/>
</linearGradient>
<linearGradient id="paint5_linear_816_15931" x1="61.402" y1="73" x2="53.8107" y2="100.088" gradientUnits="userSpaceOnUse">
<stop stop-color="#D7FDDE"/>
<stop offset="1" stop-color="#37E89E"/>
</linearGradient>
<linearGradient id="paint6_linear_816_15931" x1="44.4733" y1="5.03073" x2="1.98623" y2="34.9193" gradientUnits="userSpaceOnUse">
<stop stop-color="#D7FDDE"/>
<stop offset="1" stop-color="#37E89E"/>
</linearGradient>
</defs>
</svg>
