<svg width="24" height="24" viewBox="0 0 24 24" fill="none" xmlns="http://www.w3.org/2000/svg">
<g id="Group 4">
<circle id="Ellipse 3" cx="8.25" cy="8.25" r="1.25" fill="#37E89E"/>
<path id="Vector (Stroke)" fill-rule="evenodd" clip-rule="evenodd" d="M10.0993 3.75004L7.25058 3.77504C6.92791 3.77762 6.61859 3.907 6.39049 4.13524L4.11045 6.41628C3.88013 6.6466 3.75 6.95994 3.75 7.28707V10.0991C3.75 10.4256 3.87963 10.7388 4.11042 10.9698C4.11038 10.9698 4.11045 10.9699 4.11042 10.9698L13.0214 19.8838C13.1375 20 13.2756 20.0925 13.4273 20.1554C13.5791 20.2183 13.7417 20.2506 13.906 20.2506C14.0703 20.2506 14.2329 20.2183 14.3847 20.1554C14.5364 20.0925 14.6743 20.0003 14.7904 19.884L19.8845 14.7869C20.0006 14.6708 20.093 14.5327 20.1559 14.381C20.2187 14.2293 20.2511 14.0668 20.2511 13.9026C20.2511 13.7384 20.2187 13.5758 20.1559 13.4241C20.093 13.2724 20.0009 13.1346 19.8848 13.0185L10.9809 4.11068C10.9809 4.11067 10.981 4.11069 10.9809 4.11068C10.8653 3.99512 10.7277 3.90368 10.5763 3.84177C10.4251 3.7799 10.2627 3.74872 10.0993 3.75004ZM10.0867 2.2501C10.4492 2.24707 10.8087 2.31619 11.1442 2.45342C11.4797 2.59066 11.7846 2.79327 12.041 3.04946L20.9452 11.9576C20.9451 11.9576 20.9453 11.9577 20.9452 11.9576C21.2006 12.213 21.4034 12.5163 21.5416 12.8499C21.6799 13.1836 21.7511 13.5413 21.7511 13.9026C21.7511 14.2638 21.6799 14.6215 21.5416 14.9552C21.4034 15.2888 21.2008 15.5919 20.9455 15.8472L15.8516 20.9441C15.8516 20.9441 15.8517 20.9441 15.8516 20.9441C15.5963 21.1997 15.2929 21.4027 14.9591 21.541C14.6252 21.6794 14.2674 21.7506 13.906 21.7506C13.5446 21.7506 13.1868 21.6794 12.8529 21.541C12.5192 21.4027 12.2159 21.1999 11.9606 20.9443C11.9605 20.9442 11.9606 20.9444 11.9606 20.9443L3.04958 12.0303C2.53766 11.518 2.24999 10.8233 2.25 10.0991C2.25 10.0991 2.25 10.0991 2.25 10.0991V7.28707C2.25 6.56225 2.53795 5.86752 3.04955 5.35586C3.04951 5.35589 3.04959 5.35582 3.04955 5.35586L5.32951 3.0749C5.32949 3.07492 5.32952 3.07489 5.32951 3.0749C5.83593 2.56819 6.52135 2.28089 7.23771 2.2751" fill="black"/>
</g>
</svg>
