<svg width="24" height="24" viewBox="0 0 24 24" fill="none" xmlns="http://www.w3.org/2000/svg">
<g id="Group">
<g id="Group_2">
<path id="Vector" d="M7 9.5V14.5L3 9.5V14.5" stroke="#37E89E" stroke-width="1.5" stroke-linecap="round" stroke-linejoin="round"/>
<path id="Vector_2" d="M10 12H13" stroke="#37E89E" stroke-width="1.5" stroke-linecap="round" stroke-linejoin="round"/>
<path id="Vector_3" d="M13.5 9.50403H10V14.5H13.5" stroke="#37E89E" stroke-width="1.5" stroke-linecap="round" stroke-linejoin="round"/>
<path id="Vector_4" d="M16 9.5L16.5 14.5H16.714L18.5 11.5L20.286 14.5H20.5L21 9.5" stroke="#37E89E" stroke-width="1.5" stroke-linecap="round" stroke-linejoin="round"/>
<path id="Vector_5" d="M19.112 6.49996C18.8817 6.19602 18.6318 5.90741 18.364 5.63596C17.5283 4.80022 16.5361 4.13727 15.4442 3.68497C14.3522 3.23267 13.1819 2.99988 12 2.99988C10.8181 2.99988 9.64776 3.23267 8.55582 3.68497C7.46389 4.13727 6.47173 4.80022 5.636 5.63596C5.36845 5.90766 5.1186 6.19626 4.888 6.49996" stroke="black" stroke-width="1.5" stroke-linecap="round" stroke-linejoin="round"/>
<path id="Vector_6" d="M4.888 17.5C5.118 17.799 5.362 18.09 5.636 18.364C6.47173 19.1997 7.46389 19.8627 8.55582 20.315C9.64776 20.7673 10.8181 21.0001 12 21.0001C13.1819 21.0001 14.3522 20.7673 15.4442 20.315C16.5361 19.8627 17.5283 19.1997 18.364 18.364C18.638 18.09 18.881 17.799 19.112 17.5" stroke="black" stroke-width="1.5" stroke-linecap="round" stroke-linejoin="round"/>
</g>
</g>
</svg>
