<svg width="26" height="26" viewBox="0 0 26 26" fill="none" xmlns="http://www.w3.org/2000/svg">
<g id="Group">
<g id="Group_2">
<path id="Vector (Stroke)" fill-rule="evenodd" clip-rule="evenodd" d="M3.37866 2.20001C2.73139 2.20001 2.20666 2.72473 2.20666 3.37201V8.85868C2.20666 9.50596 2.73139 10.0307 3.37866 10.0307H8.86533C9.51261 10.0307 10.0373 9.50596 10.0373 8.85868V3.37201C10.0373 2.72473 9.51261 2.20001 8.86533 2.20001H3.37866ZM0.206665 3.37201C0.206665 1.62016 1.62682 0.200012 3.37866 0.200012H8.86533C10.6172 0.200012 12.0373 1.62016 12.0373 3.37201V8.85868C12.0373 10.6105 10.6172 12.0307 8.86533 12.0307H3.37866C1.62682 12.0307 0.206665 10.6105 0.206665 8.85868V3.37201Z" fill="#858585"/>
<path id="Vector (Stroke)_2" fill-rule="evenodd" clip-rule="evenodd" d="M3.37866 15.9627C2.73139 15.9627 2.20666 16.4874 2.20666 17.1347V22.6214C2.20666 23.2687 2.73139 23.7934 3.37866 23.7934H8.86533C9.51261 23.7934 10.0373 23.2687 10.0373 22.6214V17.1347C10.0373 16.4874 9.51261 15.9627 8.86533 15.9627H3.37866ZM0.206665 17.1347C0.206665 15.3829 1.62682 13.9627 3.37866 13.9627H8.86533C10.6172 13.9627 12.0373 15.3829 12.0373 17.1347V22.6214C12.0373 24.3732 10.6172 25.7934 8.86533 25.7934H3.37866C1.62682 25.7934 0.206665 24.3732 0.206665 22.6214V17.1347Z" fill="#858585"/>
</g>
<g id="Group_3">
<path id="Vector (Stroke)_3" fill-rule="evenodd" clip-rule="evenodd" d="M17.1411 2.20062C16.4938 2.20062 15.9691 2.72534 15.9691 3.37262V8.85929C15.9691 9.50657 16.4938 10.0313 17.1411 10.0313H22.6277C23.275 10.0313 23.7997 9.50657 23.7997 8.85929V3.37262C23.7997 2.72534 23.275 2.20062 22.6277 2.20062L17.1411 2.20062ZM13.9691 3.37262C13.9691 1.62077 15.3892 0.200623 17.1411 0.200623L22.6277 0.200623C24.3796 0.200623 25.7997 1.62077 25.7997 3.37262V8.85929C25.7997 10.6111 24.3796 12.0313 22.6277 12.0313H17.1411C15.3892 12.0313 13.9691 10.6111 13.9691 8.85929V3.37262Z" fill="#858585"/>
<path id="Vector (Stroke)_4" fill-rule="evenodd" clip-rule="evenodd" d="M17.1413 15.9626C16.494 15.9626 15.9693 16.4874 15.9693 17.1346V22.6213C15.9693 23.2686 16.494 23.7933 17.1413 23.7933H22.628C23.2752 23.7933 23.8 23.2686 23.8 22.6213V17.1346C23.8 16.4874 23.2752 15.9626 22.628 15.9626H17.1413ZM13.9693 17.1346C13.9693 15.3828 15.3895 13.9626 17.1413 13.9626H22.628C24.3798 13.9626 25.8 15.3828 25.8 17.1346V22.6213C25.8 24.3732 24.3798 25.7933 22.628 25.7933H17.1413C15.3895 25.7933 13.9693 24.3732 13.9693 22.6213V17.1346Z" fill="#858585"/>
</g>
</g>
</svg>
