<svg width="32" height="32" viewBox="0 0 32 32" fill="none" xmlns="http://www.w3.org/2000/svg">
<g id="icon/heart" clip-path="url(#clip0_1597_3208)">
<path id="Vector (Stroke)" fill-rule="evenodd" clip-rule="evenodd" d="M11.072 6.33331C7.53622 6.33331 5 9.70149 5 13.0066C5 14.6191 5.63343 16.2176 6.67221 17.748C7.71007 19.277 9.11529 20.682 10.5595 21.8847C11.9998 23.0843 13.4511 24.0599 14.556 24.7352C15.1077 25.0725 15.5687 25.3323 15.8933 25.5054C15.931 25.5255 15.9666 25.5443 16 25.5617C16.0334 25.5443 16.069 25.5255 16.1067 25.5054C16.4313 25.3323 16.8923 25.0725 17.444 24.7352C18.5489 24.0599 20.0002 23.0843 21.4405 21.8847C22.8847 20.682 24.2899 19.277 25.3278 17.748C26.3666 16.2176 27 14.6191 27 13.0066C27 9.70149 24.4638 6.33331 20.928 6.33331C18.8822 6.33331 17.5493 7.34118 16.7601 8.26443C16.5701 8.48668 16.2924 8.61465 16 8.61465C15.7076 8.61465 15.4299 8.48668 15.2399 8.26443C14.4507 7.34118 13.1178 6.33331 11.072 6.33331ZM3 13.0066C3 8.9118 6.14111 4.33331 11.072 4.33331C13.2842 4.33331 14.9019 5.21426 16 6.18969C17.0981 5.21426 18.7158 4.33331 20.928 4.33331C25.8589 4.33331 29 8.9118 29 13.0066C29 15.1495 28.1603 17.1362 26.9826 18.8712C25.804 20.6076 24.2495 22.1481 22.7205 23.4216C21.1876 24.6982 19.6524 25.7294 18.4871 26.4417C17.9038 26.7982 17.4088 27.0776 17.0478 27.2701C16.8681 27.3659 16.7167 27.4429 16.6012 27.4981C16.5448 27.525 16.4881 27.5511 16.4365 27.5724C16.412 27.5826 16.3763 27.5969 16.3359 27.6104C16.3161 27.6171 16.2834 27.6275 16.2434 27.6372L16.2428 27.6373C16.2172 27.6436 16.1223 27.6666 16 27.6666C15.8777 27.6666 15.7828 27.6436 15.7572 27.6373L15.7566 27.6372C15.7166 27.6275 15.6839 27.6171 15.6641 27.6104C15.6237 27.5969 15.588 27.5826 15.5635 27.5724C15.512 27.5511 15.4552 27.525 15.3988 27.4981C15.2833 27.4429 15.1319 27.3659 14.9522 27.2701C14.5912 27.0776 14.0962 26.7982 13.5129 26.4417C12.3476 25.7294 10.8124 24.6982 9.27954 23.4216C7.75054 22.1481 6.19602 20.6076 5.01742 18.8712C3.83974 17.1362 3 15.1495 3 13.0066Z" fill="#858585"/>
</g>
<defs>
<clipPath id="clip0_1597_3208">
<rect width="32" height="32" fill="white"/>
</clipPath>
</defs>
</svg>
