<svg width="32" height="32" viewBox="0 0 32 32" fill="none" xmlns="http://www.w3.org/2000/svg">
<g id="icon/home">
<path id="Vector (Stroke)" fill-rule="evenodd" clip-rule="evenodd" d="M15.3695 3.22601C15.7379 2.92462 16.2677 2.92467 16.636 3.22612L27.6553 12.2442C28.5072 12.9401 29 13.9835 29 15.0813V25.3333C29 26.3058 28.6137 27.2384 27.9261 27.9261C27.2384 28.6137 26.3058 29 25.3333 29H6.66667C5.69421 29 4.76157 28.6137 4.07394 27.9261C3.38631 27.2384 3 26.3058 3 25.3333V15.0827C3 13.9838 3.49248 12.9402 4.34626 12.244C4.34605 12.2442 4.34647 12.2439 4.34626 12.244L15.3695 3.22601ZM4.97867 13.0187L5.61045 13.7938C5.22461 14.1083 5 14.5818 5 15.0827V25.3333C5 25.7754 5.17559 26.1993 5.48816 26.5118C5.80072 26.8244 6.22464 27 6.66667 27H25.3333C25.7754 27 26.1993 26.8244 26.5118 26.5118C26.8244 26.1993 27 25.7754 27 25.3333V15.0813C27 14.5819 26.7754 14.1079 26.3901 13.7931L16.0026 5.2921L5.61186 13.7927L4.97867 13.0187Z" fill="#37E89E"/>
</g>
</svg>
