<svg width="19" height="18" viewBox="0 0 19 18" fill="none" xmlns="http://www.w3.org/2000/svg">
<g id="vector">
<path id="Path (Stroke)" fill-rule="evenodd" clip-rule="evenodd" d="M3.2913 3.52781C3.43371 3.35208 3.64781 3.25 3.874 3.25H16.5C17.6392 3.25 18.4739 4.31984 18.1976 5.4249L16.8496 10.8169C16.5679 11.9425 15.6109 12.7707 14.4557 12.8863C14.4557 12.8863 14.4557 12.8863 14.4557 12.8863L7.63967 13.5683C6.24373 13.707 4.96567 12.7742 4.67528 11.4014C4.67526 11.4013 4.6753 11.4015 4.67528 11.4014L3.14028 4.15543C3.09341 3.93416 3.1489 3.70354 3.2913 3.52781ZM4.79952 4.75L6.14272 11.0906C6.27442 11.7135 6.85456 12.1387 7.49033 12.0757L14.3063 11.3937C14.831 11.3413 15.2661 10.9654 15.3944 10.4531C15.3944 10.4532 15.3944 10.453 15.3944 10.4531L16.7424 5.0611C16.7821 4.90216 16.6628 4.75 16.5 4.75H4.79952Z" fill="#858585"/>
<path id="Path (Stroke)_2" fill-rule="evenodd" clip-rule="evenodd" d="M0.75 1C0.75 0.585786 1.08579 0.25 1.5 0.25H3.224C3.57701 0.25 3.88224 0.496177 3.95699 0.841185L4.60699 3.84118C4.6947 4.24601 4.43764 4.64528 4.03282 4.73299C3.62799 4.8207 3.22872 4.56364 3.14101 4.15882L2.6191 1.75H1.5C1.08579 1.75 0.75 1.41421 0.75 1Z" fill="#858585"/>
<path id="Union" fill-rule="evenodd" clip-rule="evenodd" d="M6.697 15.517C6.08467 15.517 5.58086 16.013 5.58298 16.633C5.58089 17.2553 6.08699 17.75 6.698 17.75C7.31421 17.75 7.814 17.2502 7.814 16.634C7.814 16.0168 7.31421 15.517 6.697 15.517ZM7.08297 16.633L7.08296 16.6335V16.6324L7.08297 16.633ZM15.114 15.517C14.5017 15.517 13.9979 16.013 14 16.633C13.9979 17.2553 14.504 17.75 15.115 17.75C15.7312 17.75 16.231 17.2502 16.231 16.634C16.231 16.0168 15.7312 15.517 15.114 15.517ZM15.5 16.633L15.5 16.6335V16.6324L15.5 16.633Z" fill="#858585"/>
</g>
</svg>
