<svg width="24" height="24" viewBox="0 0 24 24" fill="none" xmlns="http://www.w3.org/2000/svg">
<g id="Group">
<path id="Vector (Stroke)" fill-rule="evenodd" clip-rule="evenodd" d="M4.75 12C4.75 11.5858 5.08579 11.25 5.5 11.25H18.5C18.9142 11.25 19.25 11.5858 19.25 12C19.25 12.4142 18.9142 12.75 18.5 12.75H5.5C5.08579 12.75 4.75 12.4142 4.75 12Z" fill="#858585"/>
<path id="Vector (Stroke)_2" fill-rule="evenodd" clip-rule="evenodd" d="M4.75 16C4.75 15.5858 5.08579 15.25 5.5 15.25H18.5C18.9142 15.25 19.25 15.5858 19.25 16C19.25 16.4142 18.9142 16.75 18.5 16.75H5.5C5.08579 16.75 4.75 16.4142 4.75 16Z" fill="#858585"/>
<path id="Vector (Stroke)_3" fill-rule="evenodd" clip-rule="evenodd" d="M4.75 8C4.75 7.58579 5.08579 7.25 5.5 7.25H18.5C18.9142 7.25 19.25 7.58579 19.25 8C19.25 8.41421 18.9142 8.75 18.5 8.75H5.5C5.08579 8.75 4.75 8.41421 4.75 8Z" fill="#858585"/>
</g>
</svg>
