<svg width="24" height="24" viewBox="0 0 24 24" fill="none" xmlns="http://www.w3.org/2000/svg">
<g id="Group">
<path id="Vector (Stroke)" fill-rule="evenodd" clip-rule="evenodd" d="M15.1835 7.36853C13.0254 5.21049 9.52656 5.21049 7.36853 7.36853C5.21049 9.52657 5.21049 13.0254 7.36853 15.1835C9.52656 17.3415 13.0254 17.3415 15.1835 15.1835C17.3415 13.0254 17.3415 9.52657 15.1835 7.36853ZM16.2441 6.30787C13.5003 3.56405 9.05169 3.56405 6.30787 6.30787C3.56404 9.05169 3.56404 13.5003 6.30787 16.2441C9.05169 18.988 13.5003 18.988 16.2441 16.2441C18.988 13.5003 18.988 9.05169 16.2441 6.30787Z" fill="#858585"/>
<path id="Vector (Stroke)_2" fill-rule="evenodd" clip-rule="evenodd" d="M15.1797 15.1797C15.4726 14.8868 15.9474 14.8868 16.2403 15.1797L19.5303 18.4697C19.8232 18.7626 19.8232 19.2374 19.5303 19.5303C19.2374 19.8232 18.7626 19.8232 18.4697 19.5303L15.1797 16.2403C14.8868 15.9474 14.8868 15.4726 15.1797 15.1797Z" fill="#858585"/>
</g>
</svg>
